<svg id="Layer_1" data-name="Layer 1" xmlns="http://www.w3.org/2000/svg" xmlns:xlink="http://www.w3.org/1999/xlink" viewBox="0 0 52 40"><defs><style>.cls-1{fill:none;}.cls-2{clip-path:url(#clip-path);}.cls-3{fill:url(#linear-gradient);}.cls-4{fill:url(#linear-gradient-2);}</style><clipPath id="clip-path"><rect class="cls-1" width="52" height="40"/></clipPath><linearGradient id="linear-gradient" y1="19.99" x2="39.87" y2="19.99" gradientUnits="userSpaceOnUse"><stop offset="0" stop-color="#c49432"/><stop offset="0.51" stop-color="#f5eaa8"/><stop offset="0.99" stop-color="#cda043"/></linearGradient><linearGradient id="linear-gradient-2" x1="41.08" y1="19.4" x2="51.95" y2="19.4" xlink:href="#linear-gradient"/></defs><title>g+_active</title><g class="cls-2"><path class="cls-3" d="M39.87,17.77H21.26V24H32.62a13.33,13.33,0,1,1-3.23-13.38l4.5-4.91A19.92,19.92,0,0,0,0,20,20,20,0,0,0,19.94,40,20.4,20.4,0,0,0,39.87,24Zm0,0"/></g><path class="cls-4" d="M52,17.76H48.15V13.94H44.89v3.82H41.08V21h3.81v3.82h3.26V21H52Zm0,0"/></svg>