<svg id="Layer_1" data-name="Layer 1" xmlns="http://www.w3.org/2000/svg" xmlns:xlink="http://www.w3.org/1999/xlink" viewBox="0 0 40 40"><defs><style>.cls-1{fill:url(#linear-gradient);}.cls-2{fill:url(#linear-gradient-2);}.cls-3{fill:url(#linear-gradient-3);}</style><linearGradient id="linear-gradient" y1="20" x2="40" y2="20" gradientUnits="userSpaceOnUse"><stop offset="0" stop-color="#c49432"/><stop offset="0.51" stop-color="#f5eaa8"/><stop offset="0.99" stop-color="#cda043"/></linearGradient><linearGradient id="linear-gradient-2" x1="11.11" y1="19.92" x2="29.05" y2="19.92" xlink:href="#linear-gradient"/><linearGradient id="linear-gradient-3" x1="28.5" y1="9.89" x2="31.73" y2="9.89" xlink:href="#linear-gradient"/></defs><title>inst_active</title><path class="cls-1" d="M29.19,40H10.81A10.82,10.82,0,0,1,0,29.19V10.81A10.82,10.82,0,0,1,10.81,0H29.19A10.82,10.82,0,0,1,40,10.81V29.19A10.82,10.82,0,0,1,29.19,40ZM10.81,3.23a7.58,7.58,0,0,0-7.58,7.58V29.19a7.58,7.58,0,0,0,7.58,7.58H29.19a7.58,7.58,0,0,0,7.58-7.58V10.81a7.58,7.58,0,0,0-7.58-7.58Z"/><path class="cls-2" d="M20.06,28.89A9,9,0,1,1,29,18.6h0A9,9,0,0,1,21.4,28.79,9.1,9.1,0,0,1,20.06,28.89Zm0-14.71a5.74,5.74,0,1,0,.84.06A5.73,5.73,0,0,0,20.08,14.18Z"/><path class="cls-3" d="M30.11,11.5A1.62,1.62,0,1,1,31.25,11,1.63,1.63,0,0,1,30.11,11.5Z"/></svg>