<svg id="Layer_1" data-name="Layer 1" xmlns="http://www.w3.org/2000/svg" xmlns:xlink="http://www.w3.org/1999/xlink" viewBox="0 0 56 40"><defs><style>.cls-1{fill:none;}.cls-2{clip-path:url(#clip-path);}.cls-3{fill:url(#linear-gradient);}.cls-4{fill:url(#linear-gradient-2);}</style><clipPath id="clip-path"><rect class="cls-1" width="56" height="40"/></clipPath><linearGradient id="linear-gradient" y1="19.56" x2="55.31" y2="19.56" gradientUnits="userSpaceOnUse"><stop offset="0" stop-color="#c49432"/><stop offset="0.51" stop-color="#f5eaa8"/><stop offset="0.99" stop-color="#cda043"/></linearGradient><linearGradient id="linear-gradient-2" x1="19.35" y1="20" x2="36.65" y2="20" xlink:href="#linear-gradient"/></defs><title>yt_active</title><g class="cls-2"><path class="cls-3" d="M55.07,10.49A11.19,11.19,0,0,0,44.11.3L36.42.19C31.61.13,23.73.12,18.91.19L11.06.3A11.06,11.06,0,0,0,.2,10.51l0,.45c-.24,4.72-.24,12.39,0,17.1l0,.46A11.11,11.11,0,0,0,11.06,38.77l7.87.15c2.4,0,5.56.07,8.72.07s6.38,0,8.8-.07l7.68-.15a11.24,11.24,0,0,0,11-10.23l0-.46a170.37,170.37,0,0,0,0-17.13ZM51.61,27.88l0,.47a7.83,7.83,0,0,1-7.53,7l-7.68.14c-4.78.09-12.6.09-17.39,0l-7.86-.14a7.61,7.61,0,0,1-7.44-7l0-.45c-.23-4.63-.23-12.16,0-16.78l0-.45a7.57,7.57,0,0,1,7.44-7L19,3.58c2.36,0,5.47-.05,8.59-.05s6.39,0,8.81.05l7.68.11a7.68,7.68,0,0,1,7.53,7l0,.46a165,165,0,0,1,0,16.73Zm0,0"/></g><path class="cls-4" d="M35.72,18.5,21.91,11.42a1.78,1.78,0,0,0-1.72,0,1.7,1.7,0,0,0-.84,1.45V27.08a1.69,1.69,0,0,0,.84,1.45,1.8,1.8,0,0,0,.9.24,1.77,1.77,0,0,0,.81-.2L35.72,21.5a1.68,1.68,0,0,0,0-3ZM22.84,24.27V15.73L31.17,20Zm0,0"/></svg>