<?xml version="1.0" encoding="utf-8"?>
<!-- Generator: Adobe Illustrator 19.0.0, SVG Export Plug-In . SVG Version: 6.00 Build 0)  -->
<svg version="1.1" id="Слой_1" xmlns="http://www.w3.org/2000/svg" xmlns:xlink="http://www.w3.org/1999/xlink" x="0px" y="0px"
	 viewBox="0 0 104.7 61.3" style="enable-background:new 0 0 104.7 61.3;" xml:space="preserve">
<style type="text/css">
	.st0{fill:#FFAB8E;}
	.st1{fill:#D6D6D6;}
	.st2{fill:none;}
	.st3{fill:#D58F77;}
</style>
<g id="XMLID_33_">
	<path id="XMLID_34_" class="st0" d="M7.9,38.3c1.6,1.6,3.6,3,6,4c2.4,1,4.7,1.5,7.1,1.5c2.9,0,5.1-0.6,6.7-1.7s2.4-2.7,2.4-4.5
		c0-1.9-0.8-3.4-2.4-4.3c-1.5-0.9-4-1.4-7.3-1.4c-1.8,0-3.2,0-4.2,0c-1,0-1.6,0-1.9,0.1v-8.9c0.3,0,0.9,0.1,1.9,0.1s2.4,0,4,0
		c2.7,0,4.9-0.4,6.5-1.3c1.6-0.9,2.4-2.2,2.4-4s-0.8-3.2-2.4-4.2c-1.7-1-3.8-1.5-6.5-1.5c-4.7,0-8.8,1.7-12.3,5l-5-6.3
		C5,8.3,7.6,6.4,10.7,5c3.2-1.4,6.7-2.1,10.6-2.1c5.7,0,10.1,1.2,13.4,3.5c3.3,2.4,4.9,5.6,4.9,9.5c0,2.9-1,5.3-3.1,7.2
		c-2.1,2-4.6,3.2-7.5,3.7c1.8,0.2,3.5,0.8,5.3,1.7c1.7,1,3.2,2.3,4.4,3.9c1.2,1.7,1.7,3.6,1.7,5.8c0,2.7-0.8,5.2-2.4,7.3
		c-1.5,2.1-3.8,3.8-6.7,5c-2.8,1.2-6.2,1.8-10,1.8c-4.3,0-8-0.7-11.2-2.2c-3.3-1.4-5.8-3.3-7.7-5.6L7.6,38L7.9,38.3z"/>
	<path id="XMLID_36_" class="st0" d="M47.7,15.5c1.4-3.7,3.6-6.7,6.6-9.1c2.9-2.3,6.6-3.5,11-3.5c4.4,0,8,1.2,11,3.5
		c3,2.4,5.2,5.4,6.6,9.1c1.4,3.7,2.2,7.8,2.2,12.1c0,4.3-0.7,8.4-2.2,12.2c-1.4,3.7-3.6,6.8-6.6,9.1c-3,2.3-6.6,3.5-11,3.5
		c-4.4,0-8.1-1.2-11-3.5c-3-2.3-5.2-5.4-6.6-9.2c-1.4-3.8-2.2-7.8-2.2-12.2C45.5,23.2,46.3,19.2,47.7,15.5L47.7,15.5z M72.5,16.2
		c-1.5-2.8-3.9-4.2-7.1-4.2c-3.3,0-5.6,1.4-7.1,4.2c-1.5,2.9-2.3,6.7-2.3,11.4s0.8,8.5,2.3,11.4c1.5,2.9,3.9,4.3,7.1,4.3
		c3.2,0,5.6-1.4,7.1-4.3c1.5-2.9,2.3-6.7,2.3-11.4C74.8,22.9,74,19,72.5,16.2L72.5,16.2z"/>
</g>
<g id="XMLID_24_">
	<path id="XMLID_25_" class="st1" d="M40.9,44.1v-4h14.3v4h-4.9v13.4h-4.6V44.1H40.9z"/>
	<path id="XMLID_27_" class="st1" d="M68.5,45.7c1.3,0,2.5,0.3,3.4,0.8c0.9,0.5,1.6,1.2,2.1,2.2c0.5,0.9,0.7,1.9,0.7,2.9
		c0,1-0.2,2-0.7,2.9c-0.5,0.9-1.2,1.6-2.1,2.2s-2.1,0.9-3.3,0.9H58.2V40.1h4.6v5.5L68.5,45.7z M67.8,53.7c0.7,0,1.2-0.2,1.6-0.6
		c0.4-0.4,0.5-0.9,0.5-1.5c0-0.6-0.2-1.1-0.5-1.5c-0.4-0.4-0.9-0.6-1.6-0.6h-5.1v4.2L67.8,53.7z M81.5,40.1v17.4h-4.6V40.1H81.5z"/>
	<path id="XMLID_31_" class="st1" d="M86.2,44.1c0.8-1.4,1.9-2.4,3.3-3.2c1.4-0.8,3-1.2,4.8-1.2c1.7,0,3.1,0.3,4.2,0.9
		c1.2,0.6,2.1,1.4,2.7,2.2l-3,2.8c-0.9-1.2-2.1-1.9-3.7-1.9c-1.4,0-2.5,0.5-3.4,1.4c-0.9,0.9-1.3,2.2-1.3,3.7c0,1.5,0.4,2.7,1.3,3.7
		c0.9,0.9,2,1.4,3.4,1.4c0.7,0,1.4-0.2,2.1-0.5c0.6-0.3,1.2-0.8,1.6-1.4l3,2.8c-0.6,0.9-1.5,1.7-2.7,2.3c-1.1,0.6-2.5,0.9-4.2,0.9
		c-1.8,0-3.4-0.4-4.8-1.2C88,56,87,54.9,86.2,53.5S85,50.6,85,48.8S85.4,45.5,86.2,44.1L86.2,44.1z"/>
</g>
<g id="XMLID_63_">
	<path id="XMLID_67_" class="st2" d="M62.7,43c0.8,0.2,1.7,0.4,2.6,0.4c3.2,0,5.6-1.4,7.1-4.3c1.5-2.9,2.3-6.7,2.3-11.4
		c0-4.8-0.7-8.6-2.2-11.4h-0.1c-1.5-2.8-3.9-4.2-7.1-4.2c-3.3,0-5.6,1.4-7.1,4.2c-1.5,2.9-2.3,6.7-2.3,11.4s0.8,8.5,2.3,11.4
		c0.2,0.4,0.4,0.7,0.6,1.1C59.8,41.6,61.1,42.5,62.7,43z"/>
	<path id="XMLID_77_" class="st2" d="M69.4,50.1c-0.4-0.4-0.9-0.6-1.6-0.6h-5.1v2.7c0.9,0.1,1.7,0.2,2.7,0.2c1.6,0,3.2-0.2,4.6-0.5
		c0-0.1,0-0.2,0-0.3C70,51,69.8,50.5,69.4,50.1z"/>
	<path id="XMLID_81_" class="st2" d="M83,15.5c-1.4-3.7-3.6-6.7-6.6-9.1c-3-2.3-6.6-3.5-11-3.5c-4.4,0-8.1,1.2-11,3.5
		c-3,2.4-5.2,5.4-6.6,9.1v-0.1c-1.4,3.7-2.2,7.8-2.2,12.1c0,4.3,0.7,8.4,2.2,12.2c0.1,0.1,0.1,0.3,0.2,0.4h7.4v4h-4.9v0.6
		c1.1,1.6,2.4,3,4,4.1c1.2,0.9,2.4,1.6,3.8,2.2v-11h0.7c-0.2-0.3-0.4-0.7-0.6-1.1c-1.5-2.9-2.3-6.7-2.3-11.4s0.8-8.5,2.3-11.4
		c1.5-2.8,3.9-4.2,7.1-4.2c3.2,0,5.6,1.4,7.1,4.2h0.1c1.5,2.8,2.2,6.6,2.2,11.4c0,4.7-0.8,8.5-2.3,11.4c-1.5,2.9-3.9,4.3-7.1,4.3
		c-1,0-1.8-0.1-2.6-0.4v2.6l5.8,0c1.3,0,2.5,0.3,3.4,0.8c0.9,0.5,1.6,1.2,2.1,2.2c0.2,0.5,0.4,0.9,0.5,1.5c0.6-0.4,1.2-0.7,1.8-1.2
		c0.2-0.2,0.4-0.3,0.6-0.5v-8.3h4.6v2.7c0.6-1,1-2,1.5-3.1c1.4-3.8,2.2-7.8,2.2-12.2C85.1,23.3,84.4,19.2,83,15.5z"/>
	<path id="XMLID_83_" class="st3" d="M55.2,44.1v-4h-7.4c0.7,1.7,1.5,3.3,2.5,4.7v-0.6H55.2z"/>
	<path id="XMLID_84_" class="st3" d="M71.9,46.5c-1-0.6-2.1-0.8-3.4-0.8l-5.8,0V43c-1.6-0.5-2.9-1.4-3.9-2.9h-0.7v11
		c1.4,0.6,2.9,0.9,4.5,1.1v-2.7h5.1c0.7,0,1.2,0.2,1.6,0.6c0.4,0.4,0.5,0.9,0.5,1.5c0,0.1,0,0.2,0,0.3c1.7-0.4,3.2-1,4.6-1.8
		c-0.1-0.5-0.3-1-0.5-1.5C73.5,47.7,72.9,47,71.9,46.5z"/>
	<path id="XMLID_85_" class="st3" d="M76.9,40.1v8.3c1.8-1.6,3.4-3.4,4.6-5.6v-2.7H76.9z"/>
</g>
</svg>
