<?xml version="1.0" encoding="utf-8"?>
<!-- Generator: Adobe Illustrator 19.0.0, SVG Export Plug-In . SVG Version: 6.00 Build 0)  -->
<svg version="1.1" id="Слой_1" xmlns="http://www.w3.org/2000/svg" xmlns:xlink="http://www.w3.org/1999/xlink" x="0px" y="0px"
	 viewBox="0 0 122.7 62.7" style="enable-background:new 0 0 122.7 62.7;" xml:space="preserve">
<style type="text/css">
	.st0{fill:#FFAB8E;}
	.st1{fill:#D6D6D6;}
	.st2{fill:none;}
	.st3{fill:#D58F77;}
</style>
<g id="XMLID_86_">
	<path id="XMLID_87_" class="st0" d="M5.4,14.4c1.8-3.8,4.4-6.7,7.8-8.8c3.4-2.1,7.4-3.2,12.1-3.2c2.8,0,5.4,0.4,7.8,1.3
		c2.3,0.9,4.4,2.1,6.3,3.6L34.7,15c-1.3-1.2-2.8-2.2-4.3-2.9c-1.4-0.6-3.2-0.9-5.3-0.9c-2.4,0-4.4,0.6-6.3,1.9
		c-1.8,1.2-3.2,2.9-4.2,5c-1,2.1-1.5,4.4-1.5,6.9c0,0.6,0,0.9,0.1,1.1c1.2-1.7,2.9-3.2,5.2-4.3c2.2-1.2,4.6-1.7,7.1-1.7
		c3,0,5.7,0.6,8.1,1.7c2.5,1.2,4.5,3,6,5.3c1.5,2.4,2.2,5.2,2.2,8.4c0,3.1-0.8,5.9-2.3,8.4c-1.5,2.5-3.6,4.5-6.5,5.9
		c-2.8,1.4-6,2.2-9.6,2.2c-4.7,0-8.6-1.1-11.7-3.2c-3.1-2.2-5.4-5.1-6.8-8.9s-2.2-8-2.2-12.7c0-4.9,0.9-9.2,2.7-12.9L5.4,14.4z
		 M28.8,30.6c-1.8-1.2-3.9-1.9-6.3-1.9c-1.7,0-3.5,0.4-5.2,1.2c-1.6,0.8-3,1.9-4.2,3.4c0.2,2.6,1.1,4.9,2.7,6.9c1.6,2,3.9,3,7.1,3
		c1.8,0,3.3-0.4,4.6-1.1c1.3-0.7,2.3-1.6,3-2.7c0.7-1.1,1-2.2,1-3.4c0-2.4-0.9-4.3-2.6-5.5L28.8,30.6z"/>
	<path id="XMLID_90_" class="st0" d="M48.7,15c1.4-3.7,3.6-6.7,6.6-9.1c2.9-2.3,6.6-3.5,11-3.5c4.4,0,8,1.2,11,3.5
		c3,2.4,5.2,5.4,6.6,9.1c1.4,3.7,2.2,7.8,2.2,12.1c0,4.3-0.7,8.4-2.2,12.2c-1.4,3.7-3.6,6.8-6.6,9.1c-3,2.3-6.6,3.5-11,3.5
		c-4.4,0-8.1-1.2-11-3.5c-3-2.3-5.2-5.4-6.6-9.2c-1.4-3.8-2.2-7.8-2.2-12.2C46.6,22.7,47.3,18.7,48.7,15L48.7,15z M73.5,15.7
		c-1.5-2.8-3.9-4.2-7.1-4.2c-3.3,0-5.6,1.4-7.1,4.2c-1.5,2.9-2.3,6.7-2.3,11.4s0.8,8.5,2.3,11.4c1.5,2.9,3.9,4.3,7.1,4.3
		c3.2,0,5.6-1.4,7.1-4.3c1.5-2.9,2.3-6.7,2.3-11.4C75.8,22.4,75,18.5,73.5,15.7L73.5,15.7z"/>
</g>
<g id="XMLID_57_">
	<path id="XMLID_58_" class="st1" d="M40.9,51c0.5-0.8,0.9-2,1.3-3.4c0.4-1.5,0.6-3.5,0.9-6.1l0.4-3.8h13.8V51h1.9v8.4h-4V55H43.3
		v4.4h-4V51L40.9,51L40.9,51z M52.7,51v-9.4h-5.6l-0.1,1.5c-0.3,3.8-0.8,6.4-1.7,7.8H52.7z"/>
	<path id="XMLID_61_" class="st1" d="M66.6,37.6V44h7.2v-6.4h4.6V55h-4.6v-6.9h-7.2V55h-4.6V37.6H66.6z"/>
	<path id="XMLID_65_" class="st1" d="M82.9,41.9c0.8-1.4,1.8-2.5,3.2-3.3c1.3-0.8,2.9-1.2,4.6-1.2c1.7,0,3.2,0.4,4.5,1.2
		c1.3,0.8,2.4,1.9,3.1,3.3c0.7,1.4,1.1,3.1,1.1,5v1H86.5c0.1,1.2,0.7,2.1,1.5,2.9c0.9,0.8,2.1,1.2,3.5,1.2c0.9,0,1.7-0.2,2.6-0.5
		c0.9-0.3,1.6-0.8,2.1-1.3l2,3c-0.9,0.8-1.9,1.4-3.2,1.8c-1.3,0.4-2.6,0.6-4,0.6c-1.8,0-3.3-0.4-4.8-1.2c-1.4-0.8-2.5-1.8-3.3-3.2
		s-1.2-3-1.2-4.8c0-1.7,0.4-3.2,1.2-4.6L82.9,41.9z M87.8,42.1c-0.7,0.8-1.2,1.7-1.3,2.7h8.6c-0.1-1-0.5-1.9-1.2-2.7
		c-0.7-0.8-1.8-1.2-3.1-1.2C89.5,41,88.5,41.4,87.8,42.1L87.8,42.1z"/>
	<path id="XMLID_70_" class="st1" d="M107.4,37.6v10.7l7.2-10.7h4.6V55h-4.6V43.9L107.2,55h-4.4V37.6H107.4z M107.4,34.4
		c-1.1-0.6-2.1-1.4-2.8-2.4l2.5-2c0.5,0.7,1,1.2,1.7,1.5c0.7,0.4,1.4,0.5,2.3,0.5c0.8,0,1.6-0.2,2.3-0.5c0.7-0.4,1.2-0.9,1.7-1.6
		l2.4,2c-0.8,1-1.7,1.8-2.8,2.4c-1.1,0.6-2.3,0.9-3.6,0.9C109.7,35.2,108.5,34.9,107.4,34.4L107.4,34.4z"/>
</g>
<g id="XMLID_95_">
	<path id="XMLID_96_" class="st2" d="M66.6,42.8c3.1-0.1,5.4-1.5,6.8-4.3c0.1-0.2,0.2-0.5,0.4-0.7c0-0.1,0.1-0.1,0.1-0.2
		c1.2-2.8,1.9-6.3,1.9-10.5c0-4.8-0.7-8.6-2.2-11.4h-0.1c-1.5-2.8-3.9-4.2-7.1-4.2c-3.3,0-5.6,1.4-7.1,4.2
		c-1.5,2.9-2.3,6.7-2.3,11.4s0.8,8.5,2.3,11.4c0.7,1.4,1.7,2.5,2.8,3.2c1.2,0.7,2.6,1.1,4.3,1.1C66.5,42.9,66.5,42.9,66.6,42.8z"/>
	<path id="XMLID_104_" class="st2" d="M66.6,42.8V44h7.2v-6.2c-0.1,0.3-0.2,0.5-0.4,0.7C72,41.3,69.7,42.8,66.6,42.8z"/>
	<path id="XMLID_108_" class="st2" d="M49.8,41.6c0.8,1.6,1.8,3,2.9,4.2v-4.2H49.8z"/>
	<path id="XMLID_113_" class="st2" d="M86.2,27.1c0-4.3-0.7-8.4-2.2-12.1c-1.4-3.7-3.6-6.7-6.6-9.1c-3-2.3-6.6-3.5-11-3.5
		c-4.4,0-8.1,1.2-11,3.5c-3,2.4-5.2,5.4-6.6,9.1v-0.1c-1.4,3.7-2.2,7.8-2.2,12.1c0,3.7,0.5,7.3,1.6,10.6h9.1v12.1
		c1.5,0.8,3.1,1.4,4.8,1.8v-9.7C60.9,41,60,40,59.2,38.6c-1.5-2.9-2.3-6.7-2.3-11.4s0.8-8.5,2.3-11.4c1.5-2.8,3.9-4.2,7.1-4.2
		c3.2,0,5.6,1.4,7.1,4.2h0.1c1.5,2.8,2.2,6.6,2.2,11.4c0,4.2-0.6,7.7-1.9,10.5h4.5v9.9c2.5-2.2,4.3-5,5.6-8.3
		C85.4,35.5,86.2,31.4,86.2,27.1z"/>
	<path id="XMLID_114_" class="st2" d="M66.6,48.1v3.8c2.7,0,5.1-0.5,7.2-1.4v-2.4H66.6z"/>
	<path id="XMLID_115_" class="st3" d="M48.2,37.6c0.2,0.5,0.4,1.1,0.6,1.6c0.3,0.9,0.7,1.7,1.1,2.5h2.9v4.2c0.8,0.9,1.7,1.8,2.7,2.5
		c0.6,0.5,1.2,0.9,1.9,1.3V37.6H48.2z"/>
	<path id="XMLID_116_" class="st3" d="M73.9,37.6c0,0.1-0.1,0.1-0.1,0.2V44h-7.2v-1.2c-0.1,0-0.2,0-0.3,0c-1.7,0-3.1-0.4-4.3-1.1
		v9.7c1.3,0.3,2.8,0.4,4.3,0.4c0.1,0,0.2,0,0.3,0v-3.8h7.2v2.4c1.3-0.5,2.4-1.2,3.5-2.1c0.4-0.3,0.7-0.6,1-0.9v-9.9H73.9z"/>
</g>
</svg>
