<svg id="Layer_1" data-name="Layer 1" xmlns="http://www.w3.org/2000/svg" viewBox="0 0 40 40"><defs><style>.cls-1{fill:#fff;}</style></defs><title>fb_inactive</title><path class="cls-1" d="M35.31,0H4.69A4.69,4.69,0,0,0,0,4.69V35.31A4.69,4.69,0,0,0,4.69,40H35.31A4.69,4.69,0,0,0,40,35.31V4.69A4.69,4.69,0,0,0,35.31,0Zm1.56,35.31a1.56,1.56,0,0,1-1.56,1.56H26.41V24.14h4.83L32,19.3H26.41V15.94a2.3,2.3,0,0,1,2.34-2.34H32V8.75h-3.2A7.19,7.19,0,0,0,21.56,16V19.3H16.88v4.84h4.69V36.88H4.69a1.56,1.56,0,0,1-1.56-1.56V4.69A1.56,1.56,0,0,1,4.69,3.13H35.31a1.56,1.56,0,0,1,1.56,1.56Z"/></svg>