<?xml version="1.0" encoding="utf-8"?>
<!-- Generator: Adobe Illustrator 19.0.0, SVG Export Plug-In . SVG Version: 6.00 Build 0)  -->
<svg version="1.1" id="Слой_1" xmlns="http://www.w3.org/2000/svg" xmlns:xlink="http://www.w3.org/1999/xlink" x="0px" y="0px"
	 viewBox="-518 304.7 242.7 193.3" style="enable-background:new -518 304.7 242.7 193.3;" xml:space="preserve">
<style type="text/css">
	.st0{fill:#FF5722;}
	.st1{fill:#FFFFFF;}
	.st2{fill:#474747;}
	.st3{fill:none;}
</style>
<rect x="-468.2" y="350.2" class="st0" width="143.5" height="139.9"/>
<g>
	<path class="st1" d="M-459.8,341.6h126.3c2.5,0,4.5-2,4.5-4.5v-19.7c0-2.5-2-4.5-4.5-4.5h-126.3c-2.5,0-4.5,2-4.5,4.5v19.7
		C-464.2,339.6-462.2,341.6-459.8,341.6z"/>
	<g>
		<path class="st1" d="M-427,489.8c-0.7,0-1.4,0-2.1-0.1h-0.1c-21.9-1.2-39.1-19.3-39.1-41.3v-60v-0.2l0,0
			c0.1-13.7,5.3-19.8,10.4-25.7c2.9-3.3,5.5-6.4,6.9-10.6l0.6-1.7H-518v139.9h151.4v-0.2H-427V489.8z"/>
		<path class="st1" d="M-342.8,350.2l0.6,1.7c1.4,4.2,4.1,7.3,6.9,10.6c5.1,5.9,10.3,12,10.4,25.7l0,0v0.2v60
			c0,21.2-15.9,38.8-36.7,41.1v0.1l-5,0.4h91.2V350.2H-342.8z"/>
	</g>
	<path class="st2" d="M-361.2,497.8L-361.2,497.8c20-2,37.1-16.3,42.6-35.6l0.3-1l0.5-2c0.8-3.5,1.2-7.1,1.2-10.7v-60
		c0-1.9-0.1-3.7-0.3-5.5l-0.3-2.8l0,0c-1.9-11.5-7.5-18.2-11.7-23c-1.1-1.2-2.2-2.5-3.1-3.8l-2.2-3l3.7-0.9
		c5.8-1.3,9.8-6.4,9.8-12.4v-19.7c0-7-5.7-12.7-12.8-12.7h-126.2c-7,0-12.7,5.7-12.7,12.7v19.7c0,5.9,4,11,9.8,12.4l3.7,0.9l-2.2,3
		c-0.9,1.3-2.1,2.6-3.1,3.8c-4.2,4.9-9.8,11.5-11.7,23l-0.2,1.3l-0.1,1.5c-0.2,1.8-0.3,3.6-0.3,5.5v60c0,3.6,0.4,7.2,1.2,10.7
		l0.5,2.3l0.2,0.8c5.6,19.3,22.7,33.6,42.5,35.6h0.2c0.8,0.1,1.5,0.1,2.3,0.2h0.2c0.8,0,1.6,0.1,2.5,0.1h60.8c0.8,0,1.6,0,2.4-0.1
		h0.2C-362.8,497.9-362.1,497.9-361.2,497.8z M-459.8,341.6c-2.5,0-4.5-2-4.5-4.5v-19.7c0-2.5,2-4.5,4.5-4.5h126.3
		c2.5,0,4.5,2,4.5,4.5v19.7c0,2.5-2,4.5-4.5,4.5H-459.8z M-366.6,490v-0.2H-427c-0.7,0-1.4,0-2.1-0.1h-0.1
		c-21.9-1.2-39.1-19.3-39.1-41.3v-60c0-13.8,5.3-20,10.4-25.9c2.9-3.3,5.5-6.4,6.9-10.6l0.6-1.7h107.7l0.6,1.7
		c1.4,4.2,4.1,7.3,6.9,10.6c5.1,6,10.4,12.1,10.4,25.9v60c0,21.2-15.9,38.8-36.7,41.1v0.1L-366.6,490z"/>
</g>
<line class="st3" x1="-940" y1="615.4" x2="-940" y2="614.4"/>
</svg>
