<?xml version="1.0" encoding="utf-8"?>
<!-- Generator: Adobe Illustrator 19.0.0, SVG Export Plug-In . SVG Version: 6.00 Build 0)  -->
<svg version="1.1" id="Слой_1" xmlns="http://www.w3.org/2000/svg" xmlns:xlink="http://www.w3.org/1999/xlink" x="0px" y="0px"
	 viewBox="-433 276 412 250" style="enable-background:new -433 276 412 250;" xml:space="preserve">
<style type="text/css">
	.st0{fill:#FF5722;}
	.st1{fill:#FFFFFF;}
	.st2{fill:#474747;}
</style>
<rect x="-331" y="311.4" class="st0" width="213.3" height="206.1"/>
<path d="M184.6,362.4"/>
<path class="st1" d="M203.1,458.3"/>
<g>
	<g>
		<path class="st1" d="M-295.1,498.4c-0.2-0.3-8.9-14.7-17.7-34.2l0,0c-1.6-3.5-3.1-7.2-4.7-11h-0.2c0.2,0.6,0.5,1.2,0.7,1.8
			c-0.2-0.6-0.5-1.2-0.7-1.8l0,0c-6.3-15.6-11.8-33.2-13.2-49.3V389c0.3-2.8,0.8-5.5,1.4-8.1c7.3-27.9,31.4-41.9,31.7-42
			c1.3-0.7,2.1-2.2,2.1-3.7v-23.8H-433v206.1h172.1C-273.1,517.5-288.7,508.8-295.1,498.4z"/>
		<path class="st1" d="M-153.6,311.4v23.8c0,1.5,0.8,2.9,2.1,3.7c1,0.6,24.4,14.5,31.7,42c4.6,17.3,0.6,41.7-11.8,72.3h0.2
			c-0.3,0.8-0.6,1.6-0.9,2.4c-9.8,23.8-21.3,42.7-21.4,42.9l0,0c-6.4,10.4-22,19.2-34.2,19.2H-21V311.4H-153.6z"/>
	</g>
	<path class="st1" d="M-147.3,284.4h-154.5c-4.4,0-7,3.5-7,9.3c0,5.8,2.6,9.3,7,9.3h154.5c4.4,0,7-3.5,7-9.3
		C-140.3,287.9-142.9,284.4-147.3,284.4z"/>
	<path class="st2" d="M-302.3,502.8c8,13,26.1,23.2,41.4,23.2h73c15.2,0,33.4-10.2,41.4-23.2c1.9-3.2,47.2-78,35.1-124.1
		c-6.7-25.3-25.1-40.1-32.7-45.3l-0.9-0.6v-21.5l1.5-0.4c7.2-1.7,11.7-8.3,11.7-17.3c0.1-10.3-6.2-17.6-15.3-17.6h-154.6
		c-9.1,0-15.4,7.3-15.4,17.7c0,8.9,4.5,15.6,11.7,17.3l1.5,0.4v21.5l-0.9,0.6c-7.6,5.2-26,19.9-32.7,45.3
		C-349.5,424.8-304.2,499.6-302.3,502.8z M-308.7,293.7c0-5.8,2.6-9.3,7-9.3h154.5c4.4,0,7,3.5,7,9.3c0,5.8-2.6,9.3-7,9.3h-154.5
		C-306.1,303-308.7,299.5-308.7,293.7z M-329.2,380.8c7.3-27.9,31.4-41.9,31.7-42c1.3-0.7,2.1-2.2,2.1-3.7v-23.7h142v23.8
		c0,1.5,0.8,2.9,2.1,3.7c1,0.6,24.4,14.5,31.7,42c4.7,17.8,0.4,42.9-12.7,74.7c-9.8,23.8-21.3,42.7-21.4,42.9l0,0
		c-6.4,10.4-22,19.2-34.2,19.2h-73c-12.2,0-27.8-8.8-34.2-19.2C-295.5,497.6-340.5,423.5-329.2,380.8z"/>
</g>
</svg>
