<?xml version="1.0" encoding="utf-8"?>
<!-- Generator: Adobe Illustrator 19.0.0, SVG Export Plug-In . SVG Version: 6.00 Build 0)  -->
<svg version="1.1" id="Слой_1" xmlns="http://www.w3.org/2000/svg" xmlns:xlink="http://www.w3.org/1999/xlink" x="0px" y="0px"
	 viewBox="-423 266.6 432 269.4" style="enable-background:new -423 266.6 432 269.4;" xml:space="preserve">
<style type="text/css">
	.st0{fill:#FF5722;}
	.st1{fill:#FFFFFF;}
	.st2{fill:#474747;}
</style>
<rect x="-357.5" y="275.1" class="st0" width="288.3" height="238.9"/>
<g>
	<g>
		<path class="st1" d="M-213.4,274.8c-0.1,0-0.2,0-0.3,0h0.6C-213.2,274.8-213.3,274.8-213.4,274.8z"/>
		<path class="st1" d="M-213.1,274.8c24.1,0,47.9,2.4,70.7,7.2l8.9,1.9V505l-8.9,1.9c-22.9,4.8-46.8,7.2-71,7.2s-48.1-2.4-71-7.2
			l-8.9-1.9V283.9l8.9-1.9c22.8-4.8,46.6-7.2,70.7-7.2H-423v239.3H9V274.8H-213.1z M-323,284.2L-323,284.2
			C-322.9,284.2-323,284.2-323,284.2L-323,284.2z M-301.4,503.2l-14.8-4.8c-12.9-4.2-24.7-9.1-35.2-14.4l-6.1-3.1V308.1l6.1-3.1
			c10.5-5.3,22.3-10.2,35.2-14.4l14.8-4.9C-301.4,285.7-301.4,503.2-301.4,503.2z M-69.2,480.8l-6.1,3.1
			c-10.4,5.3-22.2,10.2-35.2,14.4l-14.8,4.9V285.7l14.8,4.9c12.9,4.3,24.8,9.1,35.2,14.4l6.1,3.1V480.8z"/>
	</g>
	<path class="st2" d="M-63.2,302.2c-40.5-23-93.8-35.6-150.2-35.6c-56.3,0-109.6,12.6-150.2,35.6c-1.3,0.7-2.1,2.1-2.1,3.5V483
		c0,1.5,0.8,2.8,2.1,3.5c6.6,3.7,14.1,7.4,23.6,11.4l8,3.4l0,0l6.7,2.8c0.9,0.3,1.8,0.7,2.8,1l0,0l2.1,0.6c-4,3.1-6.7,7.9-6.7,13.4
		c0,9.3,7.6,16.9,16.9,16.9c9.3,0,16.9-7.6,16.9-16.9c0-2.3-0.5-4.5-1.3-6.5c26,6.2,53.3,9.4,81.2,9.4c28,0,55.3-3.2,81.3-9.4
		c-0.8,2-1.3,4.2-1.3,6.5c0,9.3,7.6,16.9,16.9,16.9s16.9-7.6,16.9-16.9c0-5.5-2.6-10.3-6.7-13.4l2-0.6l0,0c0.9-0.3,1.8-0.6,2.7-0.9
		l14.9-6.3c9.5-4.1,17-7.7,23.6-11.4c1.3-0.7,2.1-2.1,2.1-3.5v-34.8v-124l0,0v-18.4C-61.1,304.4-61.9,303-63.2,302.2z M-351.4,483.9
		l-6.1-3.1V308.1l6.1-3.1c10.5-5.3,22.3-10.2,35.2-14.4l14.8-4.9v217.5l-14.8-4.8C-329.1,494-340.9,489.2-351.4,483.9z M-310.2,528
		c-4.9,0-8.9-4-8.9-8.9c0-4.9,4-8.9,8.9-8.9c4.9,0,8.9,4,8.9,8.9C-301.3,524-305.3,528-310.2,528z M-133.4,505l-8.9,1.9
		c-22.9,4.8-46.8,7.2-71,7.2s-48.1-2.4-71-7.2l-8.9-1.9V283.9l8.9-1.9c22.9-4.8,46.8-7.2,71-7.2s48.1,2.4,71,7.2l8.9,1.9V505z
		 M-116.5,528c-4.9,0-8.9-4-8.9-8.9c0-4.9,4-8.9,8.9-8.9s8.9,4,8.9,8.9C-107.6,524-111.6,528-116.5,528z M-69.2,480.8l-6.1,3.1
		c-10.4,5.3-22.2,10.2-35.2,14.4l-14.8,4.9V285.7l14.8,4.9c12.9,4.3,24.8,9.1,35.2,14.4l6.1,3.1V480.8z"/>
</g>
</svg>
