<?xml version="1.0" encoding="utf-8"?>
<!-- Generator: Adobe Illustrator 19.0.0, SVG Export Plug-In . SVG Version: 6.00 Build 0)  -->
<svg version="1.1" id="Слой_1" xmlns="http://www.w3.org/2000/svg" xmlns:xlink="http://www.w3.org/1999/xlink" x="0px" y="0px"
	 viewBox="0 0 116.7 76.7" style="enable-background:new 0 0 116.7 76.7;" xml:space="preserve">
<style type="text/css">
	.st0{fill:#FFAB8E;}
	.st1{fill:#D6D6D6;}
	.st2{fill:none;}
	.st3{fill:#D58F77;}
</style>
<g id="XMLID_31_">
	<path id="XMLID_32_" class="st0" d="M3.2,31.8c1.4-3.7,3.6-6.7,6.6-9.1c2.9-2.3,6.6-3.5,11-3.5c4.4,0,8,1.2,11,3.5
		c3,2.4,5.2,5.4,6.6,9.1c1.4,3.7,2.2,7.8,2.2,12.1c0,4.3-0.7,8.4-2.2,12.2c-1.4,3.7-3.6,6.8-6.6,9.1c-3,2.3-6.6,3.5-11,3.5
		c-4.4,0-8.1-1.2-11-3.5c-3-2.3-5.2-5.4-6.6-9.2c-1.4-3.8-2.2-7.8-2.2-12.2C1.1,39.5,1.8,35.5,3.2,31.8L3.2,31.8z M28,32.6
		c-1.5-2.8-3.9-4.2-7.1-4.2c-3.3,0-5.6,1.4-7.1,4.2c-1.5,2.9-2.3,6.7-2.3,11.4s0.8,8.5,2.3,11.4c1.5,2.9,3.9,4.3,7.1,4.3
		c3.2,0,5.6-1.4,7.1-4.3c1.5-2.9,2.3-6.7,2.3-11.4C30.3,39.2,29.5,35.4,28,32.6L28,32.6z"/>
	<path id="XMLID_35_" class="st0" d="M46.8,58.7c1.2-1.2,2.5-1.7,4.1-1.7s3,0.6,4.1,1.7c1.2,1.2,1.7,2.5,1.7,4.1
		c0,1.6-0.6,3-1.7,4.1c-1.2,1.2-2.5,1.7-4.1,1.7s-3-0.6-4.1-1.7c-1.2-1.2-1.7-2.5-1.7-4.1C45.1,61.2,45.7,59.8,46.8,58.7z"/>
	<path id="XMLID_37_" class="st0" d="M69.2,54.6c1.7,1.7,3.6,3,5.8,3.8c2.2,0.9,4.5,1.3,7.1,1.3c2.7,0,4.8-0.7,6.5-2.1
		c1.6-1.3,2.4-3.1,2.4-5.2c0-2.2-0.8-4-2.3-5.4c-1.5-1.3-3.6-2-6.3-2c-4,0-7.4,1.3-10.2,4l-7.1-1.9V19.7h33v8.8h-23v12
		c1.3-1.2,3-2.2,4.8-2.9c1.9-0.7,3.9-1.1,6-1.1c2.7,0,5.2,0.6,7.6,1.9c2.4,1.2,4.2,3,5.7,5.4c1.4,2.4,2.2,5.1,2.2,8.2
		c0,3.4-0.8,6.4-2.4,8.9c-1.6,2.5-3.8,4.5-6.7,5.8c-2.8,1.3-6.2,2-10.1,2c-8,0-14.1-2.4-18.5-7.3L69.2,54.6L69.2,54.6z"/>
</g>
<g id="XMLID_24_">
	<path id="XMLID_25_" class="st1" d="M46.1,12.2c1.4-2.5,3.4-4.6,6-6.1c2.5-1.5,5.5-2.2,8.9-2.2c3.4,0,6.4,0.7,8.9,2.2
		c2.6,1.5,4.6,3.6,6,6.1c1.4,2.6,2.1,5.4,2.1,8.5c0,3.1-0.7,5.9-2.1,8.4c-1.4,2.5-3.4,4.5-6,5.9c-2.6,1.4-5.6,2.1-8.9,2.1
		c-3.3,0-6.2-0.7-8.8-2.1c-2.6-1.4-4.6-3.4-6-5.9c-1.4-2.5-2.1-5.3-2.1-8.4c0-3.1,0.7-6,2.1-8.6L46.1,12.2z M66.5,14.4
		C65,12.8,63.1,12,60.8,12c-2.3,0-4.2,0.8-5.7,2.4c-1.5,1.5-2.2,3.7-2.2,6.5c0,2.5,0.8,4.5,2.3,6.2c1.5,1.6,3.4,2.4,5.7,2.4
		c2.3,0,4.2-0.8,5.7-2.4c1.5-1.5,2.2-3.6,2.2-6.3c0-2.8-0.7-5-2.2-6.5L66.5,14.4z M104.6,5L61.9,71.7h-7.5L97,5H104.6z M82.5,48.1
		c1.4-2.5,3.4-4.6,6-6.1c2.5-1.5,5.5-2.2,8.9-2.2c3.4,0,6.4,0.7,8.9,2.2c2.6,1.5,4.6,3.6,6,6.1c1.4,2.6,2.1,5.4,2.1,8.5
		c0,3.1-0.7,5.9-2.1,8.4c-1.4,2.5-3.4,4.5-6,5.9c-2.6,1.4-5.5,2.1-8.8,2.1c-3.3,0-6.2-0.7-8.8-2.1c-2.6-1.4-4.6-3.4-6-5.9
		c-1.4-2.5-2.1-5.3-2.1-8.4c0-3.1,0.7-6,2.1-8.6L82.5,48.1z M102.9,50.2c-1.5-1.6-3.4-2.4-5.7-2.4c-2.3,0-4.2,0.8-5.7,2.4
		c-1.5,1.5-2.2,3.7-2.2,6.5c0,2.7,0.7,4.9,2.2,6.4c1.5,1.6,3.4,2.4,5.7,2.4c2.3,0,4.2-0.8,5.7-2.4c1.5-1.7,2.3-3.8,2.3-6.4
		C105.2,53.9,104.5,51.8,102.9,50.2L102.9,50.2z"/>
</g>
<g id="XMLID_62_">
	<path id="XMLID_63_" class="st2" d="M91.5,50.3c-0.3,0.3-0.5,0.6-0.7,0.9c-1,1.4-1.5,3.3-1.5,5.6c0,0,0,0,0,0.1
		c0,2.7,0.7,4.8,2.2,6.3c0.9,1,2,1.7,3.3,2.1c0.7,0.2,1.6,0.3,2.4,0.3c2.3,0,4.2-0.8,5.7-2.4c1.5-1.7,2.3-3.8,2.3-6.4
		c0-2.8-0.7-5-2.2-6.5h-0.1c-0.6-0.6-1.2-1.1-1.9-1.5c-1.1-0.6-2.4-0.9-3.8-0.9C94.9,47.9,93,48.7,91.5,50.3z"/>
	<path id="XMLID_67_" class="st2" d="M68.8,20.9c0-0.4,0-0.8-0.1-1.2c-0.2-2.2-0.9-4-2.1-5.3l-0.1,0.1c-1.5-1.6-3.4-2.4-5.7-2.4
		c-2.3,0-4.2,0.8-5.7,2.4c-1.5,1.5-2.2,3.7-2.2,6.5c0,2.5,0.8,4.5,2.3,6.2c1.5,1.6,3.4,2.4,5.7,2.4c1.5,0,2.9-0.4,4.1-1.1
		c0.6-0.3,1.1-0.8,1.6-1.3C68.1,25.6,68.8,23.5,68.8,20.9z"/>
	<path id="XMLID_68_" class="st2" d="M79.9,37.6c1.4-0.6,3-0.9,4.6-1l5.2-8.1h-7.6l-7,11v1C76.4,39.3,78,38.3,79.9,37.6z"/>
	<path id="XMLID_73_" class="st2" d="M88.5,57.6c0.3-0.3,0.6-0.5,0.8-0.8c0,0,0,0,0-0.1c0-2.3,0.5-4.1,1.5-5.6c-0.2-1.6-1-3-2.2-4.1
		c-1-0.9-2.4-1.5-4-1.8c-0.8,0.9-1.5,1.8-2.1,2.9l0.2-0.1c-1.4,2.6-2.1,5.5-2.1,8.6c0,1,0.1,2,0.2,3c0.4,0,0.8,0.1,1.2,0.1
		C84.7,59.7,86.9,59,88.5,57.6z"/>
	<path id="XMLID_74_" class="st2" d="M63.7,61.5l5.6-6.8c0,0,0,0,0,0l0.1-0.1l-0.1,0.1c0.8,0.8,1.6,1.4,2.4,2l7.1-11.1
		c-2.5,0.6-4.7,1.7-6.6,3.5l-2.8-0.8l-15,23.5h7.5l4.8-7.5C65.7,63.4,64.6,62.5,63.7,61.5z"/>
	<path id="XMLID_75_" class="st2" d="M46.2,29.2c1.4,2.5,3.4,4.5,6,5.9c2.6,1.4,5.5,2.1,8.8,2.1c1.4,0,2.7-0.1,4-0.4v-8.3
		c-1.2,0.7-2.6,1.1-4.1,1.1c-2.3,0-4.2-0.8-5.7-2.4c-1.5-1.7-2.3-3.7-2.3-6.2c0-2.8,0.7-5,2.2-6.5c1.5-1.6,3.4-2.4,5.7-2.4
		c2.3,0,4.2,0.8,5.7,2.4l0.1-0.1c1.3,1.3,2,3.1,2.1,5.3H78c-0.1-2.7-0.8-5.1-2.1-7.4c-1.4-2.5-3.4-4.6-6-6.1C67.4,4.7,64.4,4,61,4
		s-6.4,0.7-8.9,2.2c-2.6,1.5-4.6,3.6-6,6.1l0.1-0.1c-1.4,2.6-2.1,5.5-2.1,8.6C44.1,23.9,44.8,26.7,46.2,29.2z"/>
	<path id="XMLID_76_" class="st2" d="M112.3,48.2c-1.4-2.5-3.4-4.6-6-6.1c-2.5-1.5-5.5-2.2-8.9-2.2c-0.6,0-1.1,0-1.6,0.1
		c1.3,1,2.5,2.3,3.4,3.9c0.9,1.5,1.5,3.2,1.9,5c0.7,0.4,1.3,0.9,1.9,1.5h0.1c1.5,1.5,2.2,3.7,2.2,6.5c0,2.6-0.8,4.7-2.3,6.4
		c-1.5,1.6-3.4,2.4-5.7,2.4c-0.9,0-1.7-0.1-2.4-0.3c-0.8,0.5-1.6,1-2.5,1.5c-2,1-4.3,1.6-6.9,1.8c1,0.9,2.1,1.7,3.3,2.4
		c2.6,1.4,5.5,2.1,8.8,2.1c3.3,0,6.2-0.7,8.8-2.1c2.6-1.4,4.6-3.4,6-5.9c1.4-2.5,2.1-5.3,2.1-8.4C114.4,53.6,113.7,50.8,112.3,48.2z
		"/>
	<polygon id="XMLID_77_" class="st2" points="104.6,5.1 97,5.1 87.7,19.7 95.3,19.7 	"/>
	<path id="XMLID_78_" class="st2" d="M75.1,30.5c0.3-0.4,0.6-0.9,0.9-1.4c0.1-0.2,0.2-0.5,0.4-0.7h-1.2V30.5z"/>
	<path id="XMLID_79_" class="st3" d="M63.7,61.5c0.9,1,2,1.9,3.1,2.8l4.9-7.6c-0.8-0.6-1.7-1.2-2.4-2L63.7,61.5z"/>
	<path id="XMLID_80_" class="st3" d="M94.8,65.2c-1.3-0.4-2.4-1.1-3.3-2.1c-1.5-1.5-2.2-3.6-2.2-6.3c-0.2,0.3-0.5,0.6-0.8,0.8
		c-1.6,1.4-3.8,2.1-6.5,2.1c-0.4,0-0.8,0-1.2-0.1c0.3,1.9,0.9,3.7,1.9,5.4c0.7,1.3,1.6,2.5,2.7,3.5c2.6-0.3,4.8-0.9,6.9-1.8
		C93.2,66.3,94,65.8,94.8,65.2z"/>
	<path id="XMLID_81_" class="st3" d="M68.8,20.9c0,2.7-0.7,4.8-2.2,6.3c-0.5,0.5-1,0.9-1.6,1.3v8.3c1.7-0.3,3.4-0.9,4.9-1.7
		c2.1-1.1,3.8-2.7,5.1-4.5v-2h1.2c1.2-2.3,1.7-4.9,1.7-7.7c0-0.4,0-0.7,0-1.1h-9.2C68.8,20.1,68.8,20.5,68.8,20.9z"/>
	<path id="XMLID_82_" class="st3" d="M90.8,51.2c0.2-0.3,0.5-0.6,0.7-0.9c1.5-1.6,3.4-2.4,5.7-2.4c1.4,0,2.7,0.3,3.8,0.9
		c-0.3-1.8-1-3.5-1.9-5c-0.9-1.6-2.1-2.8-3.4-3.9c-2.7,0.2-5.1,0.9-7.3,2.1c-1.5,0.9-2.8,2-3.9,3.2c1.6,0.3,2.9,0.9,4,1.8
		C89.8,48.2,90.5,49.6,90.8,51.2z"/>
	<path id="XMLID_83_" class="st3" d="M78.7,45.5l5.7-8.9c-1.6,0.1-3.1,0.5-4.6,1c-1.9,0.7-3.5,1.7-4.8,2.9v-1l-5.6,8.8l2.8,0.8
		C74.1,47.2,76.3,46.1,78.7,45.5z"/>
	<polygon id="XMLID_84_" class="st3" points="95.3,19.7 87.7,19.7 82.1,28.5 89.7,28.5 	"/>
	<polygon id="XMLID_85_" class="st0" points="69.2,54.6 69.2,54.6 69.3,54.5 	"/>
</g>
</svg>
